# xmcd
#
# Track frame offsets: 
#        150
#        9742
#        20317
#        32502
#        44470
#        53340
#        63420
#        76047
#        87125
#        96560
#        106452
#        115075
#        128412
#        140645
#        150347
#        160135
#        172415
#        181497
#        191122
#        204667
#        217285
#        228512
#        238165
#        248250
#        260082
#        269232
#        281080
#        291785
#        299310
#        313045
#
# Disc length: 4264 seconds
#
# Revision: 0
# Processed by: cddbd v1.5.1PL0 Copyright (c) Steve Scherf et al.
# Submitted via: ExactAudioCopy v0.95a5
#
DISCID=bc10a61e
DTITLE=Nashville Dobros - 30 Dobro Classics
DYEAR=1999
DGENRE=Country
TTITLE0=Columbus Stockade Blues
TTITLE1=Oh My Darlin' Clementine
TTITLE2=Put Your Little Foot
TTITLE3=The Streets of Laredo
TTITLE4=Chicken Reel
TTITLE5=Down Yonder
TTITLE6=When the Work's All Done This Fall
TTITLE7=200 Miles from Home
TTITLE8=Cindy
TTITLE9=Bully of the Town
TTITLE10=Oh Them Golden Slippers
TTITLE11=Willow Garden
TTITLE12=Long, Long Ago
TTITLE13=Dixie
TTITLE14=Cielito Lindo
TTITLE15=Strawberry Roan
TTITLE16=Casey Jones
TTITLE17=Home Sweet Home
TTITLE18=I've Been Working on the Railroad
TTITLE19=Swanee River
TTITLE20=Trinkle Little Star
TTITLE21=Home on the Range
TTITLE22=Oh Susanna
TTITLE23=On Top of Old Smokey
TTITLE24=She'll Be Comin' 'Round the Mountain
TTITLE25=Rubber Dolly
TTITLE26=Red River Valley
TTITLE27=When You and I Were Young, Maggie
TTITLE28=Tom Dooley
TTITLE29=Handsome Molly
EXTD=
EXTT0=
EXTT1=
EXTT2=
EXTT3=
EXTT4=
EXTT5=
EXTT6=
EXTT7=
EXTT8=
EXTT9=
EXTT10=
EXTT11=
EXTT12=
EXTT13=
EXTT14=
EXTT15=
EXTT16=
EXTT17=
EXTT18=
EXTT19=
EXTT20=
EXTT21=
EXTT22=
EXTT23=
EXTT24=
EXTT25=
EXTT26=
EXTT27=
EXTT28=
EXTT29=
PLAYORDER=
